<svg width="64" height="64" viewBox="0 0 64 64" fill="none" xmlns="http://www.w3.org/2000/svg">
<g clip-path="url(#clip0_1486_221)">
<path d="M63.3637 15.2181C64.1946 15.7344 63.9732 17.2624 63.9732 18.1068C64.0077 20.024 63.9308 21.9416 63.7434 23.8498C63.4885 25.9573 63.5178 28.0648 63.3466 30.1761C63.1754 32.296 62.8623 34.3826 62.8623 36.5068C62.8623 38.6942 62.6532 40.8773 62.6532 43.0518C62.6532 44.0801 62.2799 45.4028 61.3919 46.0198C60.7544 46.5022 60.0005 46.8051 59.2079 46.8975C58.3642 47.0106 57.3706 47.5274 56.5269 47.5274C54.6069 47.5274 52.9935 48.2282 51.2058 48.7739C51.1517 48.7898 51.0951 48.7956 51.0389 48.7911C49.026 49.8698 46.0815 50.8284 43.881 50.3818C43.6371 50.3313 43.3959 50.2682 43.1583 50.1931C43.1297 50.2157 43.0972 50.2327 43.0623 50.2435C42.1313 50.4487 41.1593 50.3485 40.289 49.9577C40.2847 49.9577 40.2847 49.962 40.281 49.962C38.314 50.7389 35.7119 50.7598 33.6239 50.9571C30.4666 51.2508 27.313 51.7613 24.1935 52.3339C20.7775 52.9638 17.4111 53.4549 14.0367 54.3031C11.5103 54.9373 9.40102 54.9464 6.82394 54.9464C4.33489 54.9464 2.74396 54.4007 1.04422 52.4362C0.300759 51.5784 0.605825 50.467 0.421826 49.3921C0.171692 47.9188 0.342359 46.4031 0.125293 44.9127C-0.279507 42.1125 0.426092 39.4506 0.426092 36.6842V31.9271C0.348182 30.8956 0.353712 29.8594 0.442626 28.8288C0.0250258 28.119 0.296492 26.36 0.325826 25.7895C0.388759 24.6052 0.165826 22.9432 0.580759 21.8093C0.583309 21.8073 0.585396 21.8048 0.586872 21.8019C0.588347 21.7991 0.589173 21.7959 0.589292 21.7926C0.284226 20.8308 0.564226 19.6894 0.718361 18.7319C0.728409 18.6658 0.755846 18.6036 0.797824 18.5517C0.799289 18.5031 0.81095 18.4553 0.832045 18.4115C0.853146 18.3677 0.8832 18.3289 0.920249 18.2975C0.957299 18.2662 1.00051 18.2431 1.04706 18.2297C1.0936 18.2163 1.14243 18.213 1.19036 18.2199C1.26628 18.2295 1.3416 18.2435 1.41596 18.2617C1.44707 18.2106 1.48828 18.1664 1.53702 18.1319C1.88796 17.8837 2.26769 17.6907 2.61009 17.4264C2.73116 17.3259 2.84049 17.2119 2.93596 17.0865C2.73676 16.2656 2.66479 15.4187 2.72262 14.5758C2.72447 14.5467 2.73151 14.5182 2.74342 14.4916C2.72261 14.4393 2.71309 14.3831 2.7155 14.3267C2.71791 14.2704 2.73219 14.2152 2.7574 14.1648C2.7826 14.1144 2.81817 14.07 2.86173 14.0345C2.90529 13.999 2.95586 13.9731 3.01009 13.9587C3.96262 13.6563 4.92689 13.4129 5.88369 13.1234C6.73702 12.8966 8.01331 12.3509 8.84851 12.338C10.07 12.3309 11.2908 12.4038 12.5029 12.5562C13.5162 12.6741 14.9919 12.9315 15.7354 13.7443C15.786 13.7592 15.8326 13.7855 15.8717 13.8212C15.9108 13.8568 15.9413 13.9009 15.961 13.9501C16.234 14.5114 16.3483 15.1374 16.2911 15.7596C17.5036 15.7139 18.7125 15.599 19.9119 15.4154C21.4447 15.2181 22.9061 14.6262 24.4559 14.66C26.0058 14.6938 27.4458 14.1056 28.9621 14.0847C30.0559 14.0718 31.1381 14.0343 32.2191 13.9206C32.3491 13.6879 32.5258 13.4851 32.7383 13.3251C32.9507 13.1651 33.194 13.0515 33.4527 12.9915C34.409 12.8307 35.1482 13.4826 36.025 13.726C36.1101 13.7509 36.1938 13.7805 36.2757 13.8145C37.1322 13.5877 38.0298 13.659 38.8735 13.4033C39.2239 13.2961 39.554 13.2055 39.9172 13.1352V13.1309C39.8959 13.0659 39.8917 12.9965 39.905 12.9293C40.2346 11.1955 43.4671 12.1906 44.5237 12.8221C45.1338 12.4651 45.857 12.5868 46.537 12.5701C47.5226 12.5449 48.425 12.1412 49.3935 12.0662C49.3642 10.2069 50.7594 9.57263 52.6554 9.2783C54.593 8.97592 58.3391 8.56042 59.8138 10.2272C60.3189 10.7939 60.4149 11.2346 60.273 11.5831C60.2796 11.5962 60.2838 11.6104 60.2852 11.6249C60.2938 11.7509 60.4357 11.9777 60.465 12.1289C60.4885 12.2816 60.4983 12.4361 60.4943 12.5905C60.9644 12.6686 61.3918 12.9111 61.7012 13.2752C61.8093 13.3132 61.8999 13.3894 61.9562 13.4896C61.988 13.522 62.0159 13.558 62.0394 13.5968C62.2442 14.0375 62.6826 14.0836 62.9919 14.4321C63.2063 14.6403 63.3383 14.9195 63.3637 15.2181ZM62.9082 23.4343C63.1876 20.8308 63.5429 16.7294 62.9706 15.9992C62.7957 16.1178 62.6131 16.2244 62.4239 16.3182C62.4721 16.3803 62.5024 16.4545 62.5114 16.5327C62.7247 18.4515 62.8165 20.3392 62.8623 22.2693C62.8709 22.6955 62.9039 23.0815 62.9082 23.4343ZM62.6949 25.2899C62.6917 25.2834 62.6874 25.2776 62.682 25.2727C62.6791 25.3049 62.6806 25.3373 62.6863 25.3692C62.6911 25.344 62.6906 25.315 62.6949 25.2899ZM62.6698 25.5498C62.6708 25.5298 62.6749 25.5101 62.682 25.4914C62.5444 25.4914 62.4106 25.4533 62.2772 25.4576C61.9572 25.4705 61.617 25.2812 61.2997 25.3359C61.2874 25.3359 61.2746 25.3317 61.258 25.3317C59.3767 25.931 57.4338 26.3141 55.4666 26.4736C55.1466 26.4945 52.6767 26.3771 52.6309 26.9604C52.491 27.942 52.4615 28.9364 52.5429 29.9247C52.5509 29.9849 52.5482 30.0461 52.5349 30.1054C53.0478 30.4374 53.4865 30.8731 53.823 31.3847C54.1595 31.8963 54.3864 32.4726 54.4895 33.0771C56.1428 35.7519 56.2559 39.648 55.2245 42.4353C54.9861 43.2245 54.7445 44.0137 54.4474 44.761C55.0778 44.6436 55.6879 44.3857 56.3183 44.2576C56.9157 44.1396 57.5716 44.123 58.1562 43.9761C59.3044 43.6861 60.4783 43.5939 61.6351 43.3462C61.6657 43.344 61.6963 43.344 61.7269 43.3462C61.7935 42.7715 61.7978 42.1581 61.9023 41.541C62.2111 39.6689 62.0149 37.6658 62.0277 35.7728C62.0357 33.8964 62.5119 32.0488 62.5119 30.1767C62.5114 28.6401 62.5242 27.0821 62.6703 25.5498H62.6698ZM62.0298 15.5778C62.2517 15.4706 62.7274 15.3216 62.3978 15.0192C62.1722 14.8133 61.8965 14.7125 61.6586 14.5195C61.6369 14.5024 61.6172 14.4828 61.5999 14.4611C60.5599 15.7789 58.7935 15.7623 57.0229 15.7623C55.8422 15.8157 54.6699 15.9872 53.5231 16.2742C52.1989 16.5557 50.7583 16.6018 49.4698 17.0093C48.2501 17.391 46.818 17.1058 45.569 17.3578C44.2192 17.5995 42.8571 17.7661 41.489 17.8569C39.569 18.0296 37.7135 17.6602 35.7797 18.0124C34.5103 18.2435 33.2362 18.2558 31.9668 18.3989C32.0922 18.5598 32.2335 18.7265 32.3935 18.8943C32.4282 18.9319 32.455 18.976 32.4724 19.0241C32.6815 18.9908 32.8949 18.9613 33.1034 18.9276C35.5567 18.5035 38.0399 18.7978 40.4868 18.3062C42.7215 17.8569 44.9306 17.7165 47.1903 17.4838C51.9679 16.9922 56.8837 16.8661 61.569 15.8502C61.5818 15.8459 61.5903 15.8502 61.5983 15.8459C61.7327 15.7419 61.8776 15.6525 62.0309 15.5794L62.0298 15.5778ZM62.0383 21.7616C62.0429 20.0806 61.9299 18.4014 61.7002 16.7364C61.6472 16.7371 61.5946 16.7272 61.5455 16.7069C57.0938 17.6387 52.5583 17.6055 48.0474 18.2306C45.5941 18.571 43.145 18.6547 40.706 19.1168C38.5741 19.4834 36.4157 19.673 34.2527 19.6835C33.9562 19.6878 33.6596 19.7001 33.3588 19.713C34.098 21.56 33.7514 23.7849 33.3423 25.664C32.9498 27.4606 31.7178 28.6069 30.1476 29.4926C29.6678 29.7392 29.1467 29.8945 28.6106 29.9504C28.663 33.3185 28.5445 36.6871 28.2554 40.0431C28.1192 41.7662 28.0705 43.4951 28.1092 45.2232C28.1092 46.4198 28.3978 47.9982 28.1221 49.1868C28.4421 49.1406 28.7621 49.0897 29.0821 49.0479C31.8469 48.6785 34.7354 48.5316 37.4639 47.9816C37.4564 47.9648 37.4465 47.9493 37.4346 47.9354C37.4138 47.9397 37.401 47.9483 37.3845 47.952C33.697 48.4056 30.8362 46.7431 29.8794 43.0953C29.295 40.997 29.1528 38.7991 29.4618 36.6424C29.7375 34.8662 30.4143 32.5142 31.6671 31.1637C34.5279 28.0863 36.6116 25.307 41.114 25.0341C44.3423 24.8411 47.529 25.2984 49.3205 28.3549C50.1634 28.5351 50.9572 28.8975 51.6469 29.417C51.5295 28.334 51.4543 26.7513 51.9557 26.2431C53.0165 25.1767 56.2074 25.5965 57.4975 25.3574C58.6948 25.1515 59.8788 24.8741 61.0431 24.5264C62.3738 24.1141 62.0101 22.8564 62.0394 21.7632L62.0383 21.7616ZM60.49 45.6258C60.9978 45.2944 61.3748 44.7957 61.5567 44.2152C60.3498 44.4629 59.1386 44.6688 57.9194 44.8586C56.6746 45.0479 55.4719 45.4842 54.2314 45.644C54.1752 45.6518 54.118 45.6459 54.0645 45.6269C53.7994 46.177 53.4714 46.6941 53.0869 47.1677C53.3339 47.0878 53.5868 47.0274 53.8431 46.9871C54.4234 46.8948 55.0042 46.8321 55.5802 46.7061C56.9652 46.4069 59.2703 46.4739 60.49 45.6258ZM61.0234 13.8032C60.2719 13.1776 59.5951 13.6269 58.6767 14.0466C57.8658 14.3479 57.0191 14.5413 56.1583 14.6219C54.699 14.8572 53.2045 14.7284 51.8063 14.2466C51.1222 13.9102 50.4849 13.4854 49.9103 12.983C49.8872 12.9658 49.8596 12.9556 49.8309 12.9535C49.802 12.9585 49.7727 12.9613 49.7434 12.962C49.3007 13.0419 48.4319 13.8735 49.1167 14.104C50.6415 14.6203 52.1236 14.9082 53.6442 15.3634C53.6887 15.3801 53.7308 15.4027 53.7695 15.4304C54.3562 15.313 54.9343 15.1956 55.5109 15.0824C57.153 14.7565 59.9055 15.2599 61.0245 13.8032H61.0234ZM59.6618 12.6613C59.6843 12.5111 59.6672 12.3577 59.6122 12.2163C58.9719 12.5114 58.3009 12.7338 57.6117 12.8795C55.177 13.5389 52.5956 12.7792 50.2655 12.1032C50.7791 12.3927 51.3429 13.0645 51.6938 13.2489C53.2223 14.0424 55.5775 13.992 57.1812 13.5706C58.1722 13.3036 58.9487 12.8543 59.6629 12.6613H59.6618ZM54.0911 12.1198C54.5418 12.1284 59.7039 11.9643 59.4367 11.3601C58.6308 9.53403 55.8031 9.97045 54.1829 10.008C52.9029 10.0417 50.9669 10.1088 50.3866 11.2716C51.5745 11.7332 52.8227 12.0189 54.0922 12.1198H54.0911ZM54.4165 42.2128C54.8289 41.0705 55.0367 39.8638 55.0303 38.6486C55.0524 36.9575 54.6335 35.29 53.8154 33.8121C52.5887 31.717 50.4447 30.3906 47.3668 30.9991C44.6522 31.5325 42.8149 32.5319 41.1525 34.7944C39.8661 36.5411 38.7055 38.5183 38.7055 40.7454C38.7055 44.8302 40.4804 49.9438 45.4255 49.5492C47.4884 49.3857 50.37 48.6592 51.9029 47.1816C53.3573 45.7727 53.8495 44.0936 54.4175 42.2106L54.4165 42.2128ZM51.6799 15.8229C51.1828 15.7521 50.6935 15.634 50.2186 15.47C49.5754 15.2347 48.3306 15.0122 47.9546 14.3699C47.8572 14.1779 47.8191 13.9611 47.8453 13.7472C47.8714 13.5333 47.9606 13.3321 48.1012 13.1695C47.6887 13.2966 47.2623 13.3726 46.8314 13.3958C46.4223 13.4044 45.929 13.3331 45.4826 13.3834C46.2185 13.6798 46.898 14.1017 47.4911 14.6305C47.6638 14.8726 47.7859 15.1473 47.85 15.4381C47.9142 15.7289 47.9191 16.0298 47.8645 16.3225C48.0815 16.2973 48.3028 16.2721 48.5162 16.2549C49.569 16.1671 50.6255 16.0116 51.6799 15.8229ZM49.8197 30.1011C50.3206 30.1521 50.814 30.2618 51.2895 30.4281C49.402 29.559 46.8292 29.6094 44.9428 29.8823C43.5084 30.1126 42.1524 30.6941 40.9943 31.5756C39.8363 32.457 38.9117 33.6115 38.3023 34.937C37.1706 37.5233 36.1471 41.5313 37.162 44.3412C37.7887 46.0793 37.7637 47.1543 39.4757 48.4008C40.0866 48.8826 40.7865 49.238 41.5348 49.4462C40.4755 48.8113 39.6191 47.8848 39.0666 46.7763C38.1642 44.8999 37.3962 41.8182 37.889 39.723C39.2159 34.0614 43.7333 29.4588 49.8197 30.1011ZM47.577 28.0729C47.7732 28.0901 47.9652 28.111 48.1572 28.1404C46.3407 25.8522 43.0415 25.3526 40.281 25.9905C38.5519 26.3894 36.9066 26.7336 35.6031 28.0729C34.6053 29.1017 33.7114 30.1976 32.7386 31.243C30.1786 33.9966 29.5892 38.6818 30.5167 42.2214C30.9967 44.0474 31.569 45.3277 33.1391 46.4321C34.2378 47.2047 35.545 47.2797 36.8191 47.1709C35.6991 46.7634 34.2634 46.3399 33.5125 45.4242C32.67 44.2769 32.0314 42.9916 31.625 41.6252C30.7268 38.6486 31.4996 35.546 32.9908 32.9056C34.561 30.1134 36.3861 27.9093 39.4346 26.8349C40.7547 26.3895 42.1578 26.2497 43.5391 26.4262C44.9205 26.6025 46.2444 27.0905 47.4117 27.8536C47.492 27.9036 47.5508 27.9817 47.577 28.0729ZM47.0175 16.419C47.2634 15.0669 46.1066 14.5426 45.0708 14.1394C44.6911 13.9962 41.8095 12.3841 40.945 12.8291C41.4543 13.0055 41.9221 13.3036 42.4191 13.5346C43.1667 13.884 43.9336 14.1895 44.7162 14.4498C45.1338 14.5844 45.6762 14.6385 45.7935 15.1634C45.9297 15.6382 45.8918 16.1463 45.6868 16.5954C46.1332 16.53 46.5743 16.4732 47.0175 16.419ZM46.4325 28.9146C47.1301 28.9146 47.8564 28.9318 48.5748 28.9865C47.4101 28.6933 46.1984 28.6404 45.0127 28.831C42.9535 29.2465 41.2581 29.662 39.4746 30.8881C38.2452 31.802 37.2407 32.9872 36.5384 34.3526C35.8362 35.718 35.4549 37.2271 35.4239 38.7639C35.4053 40.1693 35.5171 41.5734 35.7578 42.958C35.7914 42.9832 35.8207 43.0116 35.8538 43.0374C35.8908 43.0641 35.9233 43.0967 35.9498 43.1339C35.7073 39.9749 36.3697 36.8122 37.8586 34.0196C38.7034 32.4761 39.9444 31.1884 41.4523 30.2905C42.9602 29.3927 44.6799 28.9176 46.4325 28.9146ZM45.5306 27.859C45.5392 27.7835 45.5377 27.7073 45.5263 27.6322C45.1882 27.6531 44.8666 27.4976 44.5237 27.4853C43.5014 27.3608 42.4712 27.3159 41.442 27.3512C40.4404 27.467 39.4642 27.7462 38.5519 28.1779C36.6682 29.0829 35.1237 30.5724 34.146 32.4268C33.9411 32.8129 33.7629 33.2127 33.6127 33.6234C32.7903 35.8441 31.4794 38.2497 32.2303 40.7352C32.6469 42.0505 33.2139 43.3128 33.9199 44.4967C34.3583 45.2435 35.369 45.7223 36.3002 46.0837C35.6353 45.3291 35.1819 44.4105 34.9866 43.4218C33.5962 42.2841 33.2703 41.3143 32.9487 39.3247C32.7315 37.6439 33.0138 35.9362 33.7599 34.4164C34.569 32.643 35.8225 31.1113 37.3976 29.9713C38.9727 28.8314 40.8153 28.1224 42.745 27.9137C43.1215 27.8467 43.5029 27.8108 43.8852 27.8064C44.27 27.8677 44.6467 27.972 45.0085 28.1174C45.3215 28.1989 45.497 28.0943 45.5306 27.859ZM44.8202 16.4651C45.1935 15.7724 44.9375 15.4197 44.2527 15.172C43.7992 14.9886 43.3347 14.8343 42.8618 14.7098C42.2464 14.4775 41.6614 14.1705 41.1199 13.7957C41.0712 13.8452 41.0052 13.8737 40.9359 13.8751C40.2159 13.9363 39.5046 14.0757 38.8143 14.2906C38.3876 14.3705 37.961 14.3978 37.5343 14.4461C37.8251 14.6016 38.1376 14.7121 38.4612 14.7736C38.8458 14.8406 39.4261 14.9372 39.4746 15.417C39.5541 16.181 38.6437 16.2946 38.5146 17.0254C39.0074 17.0254 39.5002 17.0297 39.9887 17.0506C41.5908 17.0849 43.1926 16.974 44.7748 16.7193C44.7619 16.6318 44.7778 16.5425 44.8202 16.4651ZM39.3412 49.3835C39.332 49.3793 39.3235 49.3735 39.3162 49.3664C38.9798 49.1041 38.6284 48.8617 38.2639 48.6404C38.2213 48.671 38.1728 48.6923 38.1215 48.7031C36.6013 49.0232 35.0581 49.2203 33.5066 49.2929C32.0133 49.3814 30.5583 49.8178 29.0842 49.8827C27.313 49.9583 25.6805 50.6048 23.9557 50.8691C22.6858 51.067 21.4037 51.1549 20.1215 51.3061C16.8389 51.6883 13.5397 52.6158 10.2197 52.633C8.59891 52.6368 6.46074 53.1278 4.91569 52.6368C3.61037 52.1649 2.40003 51.461 1.34236 50.5587C1.47928 51.35 1.87313 52.0734 2.46236 52.6159C4.69222 54.539 7.56154 54.1524 10.3301 54.1401C12.9114 54.1272 15.2794 52.7376 17.8271 52.4941C21.0673 52.1898 24.2852 51.6809 27.4618 50.9705C29.8004 50.4344 32.1972 50.3271 34.5615 49.9877C36.0794 49.7738 37.8292 49.7904 39.3412 49.3835ZM38.5519 30.5165C39.2405 29.9737 39.982 29.5025 40.7652 29.1103C39.5667 29.4328 38.4461 29.9979 37.4724 30.771C36.4986 31.5441 35.6922 32.5089 35.1023 33.6063C33.7071 36.0875 33.0223 39.5509 34.729 41.9062C34.6367 41.0483 34.6117 40.2061 34.5994 39.4839C34.5423 36.1631 35.8874 32.6241 38.5519 30.5165ZM38.0634 15.9569C38.4138 15.6379 38.6143 15.6674 38.0383 15.5414C37.5676 15.4568 37.116 15.2875 36.705 15.0417C36.1284 14.6664 35.4687 14.5592 34.8837 14.2316C34.4746 14.0005 33.3679 13.4274 33.1237 13.9753C33.0897 14.0485 33.0617 14.1244 33.0399 14.2021C33.0474 14.2807 33.036 14.3599 33.0068 14.4332C33.0133 14.5514 33.0514 14.6657 33.1171 14.7639C33.1828 14.8622 33.2737 14.9407 33.3802 14.9913C33.7727 15.231 34.2154 15.4202 34.5957 15.684C35.5647 16.3558 36.729 16.0995 37.6612 16.8008C37.6692 16.8093 37.6735 16.8174 37.682 16.8217C37.6998 16.4963 37.8355 16.1886 38.0634 15.9569ZM36.1295 17.1074C35.5506 17.0667 34.9875 16.8991 34.4799 16.6163C33.8074 16.1499 32.9642 15.9107 32.3748 15.3189C32.2202 15.1685 32.1128 14.9757 32.0661 14.7645C31.0303 14.8444 29.9946 14.8181 28.9631 14.9254C27.4346 15.0862 26.0228 15.5382 24.457 15.5006C22.9279 15.4668 21.433 16.063 19.913 16.256C18.6956 16.4418 17.4685 16.5567 16.2378 16.6002C16.5354 17.0005 16.7744 17.4416 16.9477 17.91C17.0296 18.111 17.0609 18.3292 17.0391 18.5452C17.0172 18.7613 16.9428 18.9687 16.8223 19.149C18.8815 18.7458 20.9402 18.326 22.9701 18.0193C25.1834 17.6918 27.3717 17.5031 29.5834 17.1841C29.8875 17.1055 30.2065 17.1066 30.51 17.1874C30.8135 17.2682 31.0913 17.426 31.3167 17.6457C32.9066 17.4055 34.5135 17.2119 36.1295 17.1074ZM32.4586 25.7975C32.8532 24.338 33.0098 22.8238 32.922 21.3139C31.2431 21.5198 29.562 21.7546 27.8852 22.0109C26.1396 22.2789 24.3941 22.2376 22.6735 22.6237C19.5749 23.3164 16.2335 23.0526 13.1887 24.0176C12.8629 25.3611 13.0287 27.0403 13.1637 28.3629C13.3489 29.2264 13.4608 30.1042 13.4981 30.9868C15.2938 30.5712 17.1567 30.4705 18.969 30.2019C21.5247 29.8265 24.1061 29.6303 26.6618 29.2572C28.8794 28.9339 31.8655 28.5308 32.4586 25.7975ZM32.7594 20.4898C32.7071 20.3126 32.6444 20.1386 32.5716 19.9687C32.5427 19.9012 32.5311 19.8275 32.5381 19.7543C29.2095 19.9516 25.8266 20.5017 22.5274 20.833C20.1882 21.064 18.0085 21.6983 15.6698 21.8516C14.2727 21.932 12.8874 22.1557 11.5354 22.5191C11.3349 22.5727 10.8335 22.6457 10.3701 22.7631C10.9356 22.8441 11.5056 22.8903 12.0767 22.9014C12.2563 22.8753 12.4392 22.8852 12.6148 22.9305C12.7905 22.9759 12.9555 23.0558 13.1002 23.1657C16.4602 22.1288 20.1455 22.28 23.5621 21.5203C25.3327 21.1214 27.258 21.3439 29.0666 20.9659C30.2826 20.7118 31.5231 20.6255 32.7594 20.4872V20.4898ZM31.5359 19.1688C31.1471 18.6772 30.5876 17.947 30.1823 17.9765C29.1802 18.0478 28.161 18.3249 27.1588 18.3458C24.6655 18.3963 22.1637 19.03 19.7418 19.5425C18.5013 19.8025 17.2351 19.7982 15.9871 20.1006C15.0181 20.3317 13.8906 20.5751 12.8938 20.7177C11.4613 20.9236 8.91782 21.0791 7.93382 21.1332C7.90874 21.8388 7.87571 22.5861 7.87571 23.2997C8.15514 23.2997 8.43942 23.2868 8.72371 23.2745C8.72659 23.2294 8.7321 23.1845 8.74022 23.1399C8.70989 23.0811 8.69619 23.0149 8.70061 22.9488C8.70502 22.8826 8.72742 22.8189 8.76531 22.7647C9.39994 21.7524 11.5631 21.5256 12.6239 21.3873C13.9103 21.2152 15.1173 21.0893 16.3994 21.0431C17.7738 20.9927 18.8719 20.4094 20.1914 20.2389C23.9386 19.7468 27.7935 19.6723 31.5359 19.1688ZM27.3636 38.9258C27.3636 36.3014 27.6682 31.3728 27.7562 30.0335C27.2228 30.0716 26.6895 30.0968 26.2234 30.1638C24.77 30.3782 23.2997 30.5391 21.8383 30.7053C18.9733 31.027 15.7658 31.184 12.9967 31.9818C12.9147 32.0079 12.826 32.0039 12.7466 31.9705C11.8111 32.1931 10.2117 31.8698 9.47251 31.7315C9.46451 35.3841 9.34291 38.9526 9.25542 42.5881C9.20954 44.6538 9.31354 46.5849 9.38502 48.6378C9.41434 49.4956 9.20954 50.9592 9.56851 51.8073C10.6003 51.7575 11.6291 51.6551 12.6506 51.5007C15.0357 51.1254 17.441 50.8332 19.8383 50.489C19.7265 50.2161 19.6615 49.926 19.6463 49.6312C19.6293 49.4168 19.425 49.0951 19.3829 48.8672C19.3324 48.5645 19.3423 48.2547 19.4122 47.9558C19.7087 46.5453 20.0847 45.525 21.2874 45.0634C21.1957 43.8303 21.3082 42.5361 21.3082 41.3019C21.3082 40.4913 21.0367 39.0502 21.3615 38.2915C21.2863 38.4722 20.8559 36.9105 20.8602 36.7904C20.8853 36.295 20.9482 35.5138 21.5119 35.2748C22.8357 34.708 23.7253 35.539 24.0303 36.8451C24.1332 37.125 24.1277 37.4336 24.0148 37.7096C23.9018 37.9856 23.6898 38.2088 23.4207 38.3349C23.809 39.0909 23.817 40.3503 23.8799 41.0933C23.9866 42.3109 24.0303 43.5537 24.1514 44.7627C24.4083 44.7669 24.6593 44.8404 24.8781 44.9756C25.097 45.1107 25.2758 45.3025 25.3957 45.5309C25.8426 46.6568 26.3354 48.3901 25.7423 49.5519C26.2351 49.472 26.7279 49.391 27.225 49.3165C27.2188 49.2672 27.2232 49.2171 27.2378 49.1696C27.4511 48.4603 27.1541 47.4315 27.1541 46.6927V43.7536C27.1546 42.1538 27.3636 40.5085 27.3636 38.9258ZM24.9828 49.2072C25.2211 48.6007 25.2548 47.9325 25.0788 47.3049C25.0322 47.7299 24.8783 48.1359 24.6319 48.4844C24.4204 48.7903 24.1114 49.0143 23.756 49.1196C23.4005 49.2249 23.02 49.2051 22.6773 49.0635C21.9011 48.898 21.2187 48.4369 20.7733 47.7767C20.6215 47.4721 20.5469 47.1346 20.5562 46.7941C20.5164 46.8879 20.4842 46.9849 20.4602 47.0841C20.3055 47.6797 20.0133 48.4737 20.3098 49.0677C20.4698 49.3894 20.4698 50.0864 20.6981 50.3105C20.7103 50.3276 20.7146 50.34 20.7274 50.3566C20.8778 50.3357 21.0282 50.3148 21.1781 50.2896C22.4581 50.0923 23.7381 49.8784 25.0181 49.6682C24.9634 49.6055 24.9304 49.5267 24.9241 49.4436C24.9177 49.3605 24.9384 49.2775 24.9828 49.2072ZM22.8991 48.2539C24.4357 48.6656 24.3023 46.5538 24.298 45.689C23.6255 45.3866 22.4357 45.6006 21.9135 45.7266C21.7839 45.7604 21.6629 45.8022 21.5498 45.844C21.5452 45.8712 21.5382 45.8979 21.529 45.9238C21.3438 46.4471 21.3677 47.0221 21.5957 47.528C21.9389 47.9075 22.3971 48.1627 22.8991 48.2539ZM23.3125 44.7235C23.2058 43.6652 23.1749 42.579 23.0826 41.5115C23.0202 40.7727 23.0618 39.5279 22.7093 38.7772C22.6145 38.7597 22.5287 38.7092 22.4671 38.6347C22.3711 38.6518 22.2751 38.6641 22.1791 38.6807C22.1612 38.7836 22.1499 38.8875 22.1455 38.9917C22.1455 40.91 21.9701 42.9296 22.1125 44.8478C22.5096 44.7819 22.9103 44.7404 23.3125 44.7235ZM22.1055 37.868C22.945 37.8428 23.0325 37.1962 22.3519 35.9159C22.1306 36.2054 21.9135 36.4998 21.6965 36.7893C21.7599 38.0288 21.8005 37.4139 22.1055 37.868ZM15.7242 19.2482C16.0789 18.8246 16.3503 18.5013 16.0442 17.947C15.9269 17.7411 15.6933 17.0656 15.4218 17.0109C15.3889 16.9994 15.3567 16.9853 15.3258 16.9691C13.4266 17.8404 11.3571 18.2721 9.26982 18.2322C7.61651 18.1904 5.12689 18.497 3.53169 17.6784C3.48456 17.7511 3.43004 17.8186 3.36902 17.88C3.23516 18.0054 3.08476 18.1068 2.95142 18.2322C2.75294 18.3964 2.53556 18.5361 2.30396 18.6482C2.74499 18.9802 3.21193 19.2758 3.70022 19.5323C4.41436 19.8427 5.34982 20.4094 6.13489 20.4094C6.54874 20.4094 6.95354 20.4057 7.36154 20.3719C7.40704 20.3352 7.46323 20.3145 7.52154 20.3129C10.2564 20.2496 12.9798 19.9344 15.6575 19.3715C15.6719 19.3265 15.6945 19.2847 15.7242 19.2482ZM12.817 14.9591C14.3541 14.9511 15.6319 14.4847 13.6821 13.7164C12.9158 13.483 12.1185 13.3684 11.3178 13.3765C9.56173 13.24 7.79565 13.4264 6.10609 13.9265C5.45862 14.1238 4.80742 14.3088 4.15569 14.4932C6.66131 15.7135 10.2613 14.9752 12.817 14.9618V14.9591ZM15.4106 15.1484C14.8231 15.5728 14.117 15.7991 13.3935 15.7949C12.2282 15.803 11.0757 16.2062 9.91034 16.0931C7.99034 15.9001 5.42076 16.0635 3.59569 15.1441C3.62599 15.7195 3.70774 16.291 3.83996 16.8517C5.17329 16.9482 6.50662 17.2592 7.87411 17.3261C9.22662 17.3878 15.2981 17.4178 15.4133 15.1511L15.4106 15.1484ZM10.0063 30.886C10.7999 30.9825 13.1557 31.7379 12.4831 29.9413C11.9946 28.6315 12.153 26.465 12.2282 25.0882C12.2815 24.0696 12.6421 23.8707 11.6314 23.7404C10.9711 23.6606 10.3071 23.5796 9.64742 23.5056C9.66989 23.5857 9.67136 23.6704 9.65158 23.7513C9.63187 23.8322 9.59168 23.9066 9.53491 23.9672C9.48474 25.5332 9.27142 27.3845 9.53062 29.1939C9.59302 29.6518 9.39674 30.8147 10.0063 30.886ZM8.75782 30.382C8.77798 30.0421 8.76691 29.7012 8.72474 29.3633C8.66611 29.0315 8.60742 28.7248 8.56474 28.4187C7.44474 28.6283 6.16476 28.9178 5.10236 28.5361C4.37169 28.2718 3.61969 28.0536 2.89329 27.7802C2.27089 27.5453 1.70716 27.117 1.08476 26.8902C1.05958 27.3582 1.13376 27.8262 1.30236 28.2632C1.3237 28.2896 1.34063 28.3193 1.35249 28.3511C1.43719 28.509 1.56266 28.6411 1.71569 28.7334C3.86662 29.9338 6.01276 31.3191 8.59571 30.4045C8.6473 30.3845 8.70278 30.3768 8.75782 30.382ZM8.63674 31.3685C8.63674 31.331 8.64954 31.3014 8.64954 31.2612C7.53574 31.6079 6.34714 31.6312 5.22076 31.3283C5.09116 32.7222 5.43782 34.2164 5.43782 35.6312C5.37917 37.4288 5.41478 39.2282 5.54449 41.022C5.91782 44.5069 5.51942 48.2469 6.18769 51.6857C6.19357 51.7274 6.19357 51.7699 6.18769 51.8117C6.51072 51.8473 6.83552 51.8652 7.16051 51.8652C7.67834 51.8652 8.19194 51.8572 8.70714 51.8401C8.56621 50.9647 8.52006 50.0765 8.56954 49.1911C8.50291 47.2074 8.36102 45.3121 8.40954 43.3134C8.49914 39.3118 8.63674 31.3685 8.63674 31.3685ZM8.50291 27.5743C8.50291 26.4029 8.63251 25.2105 8.68691 24.1275C7.02547 24.2413 5.35871 24.2524 3.69596 24.1608C2.73243 24.0298 1.85076 23.5463 1.21969 22.8027C1.13596 23.5962 1.22769 24.5183 1.19036 25.2083C1.18182 25.4308 1.15302 25.7118 1.12796 26.0227C2.29702 26.3331 3.34129 27.1014 4.52316 27.4628C5.82248 27.8145 7.18611 27.8527 8.50291 27.5743ZM7.03994 23.304C7.03994 22.6071 7.06931 21.8763 7.09331 21.1879C6.0919 21.2481 5.0914 21.0562 4.18236 20.6298C3.62016 20.412 3.07741 20.1465 2.55996 19.8363C2.21986 19.5835 1.86353 19.3535 1.49329 19.1479C1.34289 19.9746 1.08369 21.041 1.48476 21.7798C1.49759 21.811 1.5074 21.8433 1.51409 21.8763C1.96002 22.3775 2.51495 22.7685 3.13573 23.0191C3.75649 23.2696 4.42638 23.3728 5.09329 23.3206C5.74662 23.2954 6.39409 23.2997 7.03994 23.304ZM5.34022 51.6755C5.10429 49.9791 5.00779 48.2661 5.05169 46.5538C5.04369 44.7149 4.80956 42.8593 4.70502 41.0248C4.59249 39.0598 4.55516 37.0617 4.61329 35.0967C4.65489 33.787 4.23996 32.5357 4.39196 31.2259C4.39745 31.1808 4.41024 31.137 4.42982 31.0961C3.29725 30.6726 2.21905 30.1146 1.21809 29.4341C1.08422 30.7021 1.32476 32.2343 1.32476 33.3972C1.38669 34.6655 1.37956 35.9363 1.30342 37.2037C1.02396 39.7981 0.606359 42.5607 1.03196 45.1679C1.22822 46.3683 1.07409 47.943 1.17809 49.3996C1.18031 49.402 1.18335 49.4036 1.18662 49.4039C2.66662 50.5126 3.80902 51.3248 5.34182 51.6755H5.34022Z" fill="black"/>
<path d="M59.705 18.0891C60.3775 18.488 60.0058 20.1714 60.0058 20.7842C60.0058 21.3681 60.2981 23.0682 59.7301 23.4713C58.8698 24.0841 57.6629 23.7609 56.7061 24.1431C55.5319 24.5707 54.2811 24.7437 53.0357 24.6508C52.9818 24.682 52.9216 24.7005 52.8596 24.7051C52.7976 24.7096 52.7354 24.7001 52.6775 24.6771C52.6197 24.6541 52.5678 24.6183 52.5256 24.5723C52.4835 24.5264 52.4522 24.4715 52.4341 24.4117C52.0997 23.2949 52.2127 21.7541 52.2127 20.5912C52.2127 19.6386 52.1125 18.9791 53.1605 18.7357C54.4364 18.4343 55.739 18.2614 57.049 18.2194C57.7338 18.2065 59.0575 17.709 59.705 18.0891ZM59.1717 21.7289C59.1717 20.8389 59.2549 19.9061 59.1967 19.0252C59.1882 18.8826 57.6805 18.9877 56.3066 19.126C56.3066 19.1474 56.3189 19.1683 56.3189 19.1935C56.3231 19.8401 56.369 20.4867 56.3818 21.137H56.3898C56.8462 21.4484 57.3234 21.7277 57.8181 21.9728C58.2447 22.1573 58.7039 22.2999 59.1253 22.509C59.137 22.2747 59.1706 22.0565 59.1706 21.73L59.1717 21.7289ZM57.9199 23.0392C57.9573 23.0392 58.0575 23.0263 58.1866 23.0178C57.9199 22.917 57.6479 22.8205 57.3978 22.6987C56.9509 22.4806 56.5375 22.212 56.1151 21.9514C55.9983 22.0522 55.8565 22.1364 55.7311 22.2243C55.2303 22.5856 54.8415 23.0725 54.3365 23.4295C54.2442 23.4923 54.0165 23.6557 53.8101 23.8198C54.6196 23.8522 55.4278 23.7282 56.1909 23.4547C56.7447 23.2345 57.3269 23.0945 57.9199 23.0392ZM55.5557 21.1161C55.5557 20.4781 55.4933 19.8482 55.4847 19.2145C54.825 19.2857 54.2906 19.3571 54.1317 19.3865C53.7141 19.4707 53.0501 19.4455 53.0501 20.1087C53.0501 20.5703 53.0207 21.0448 53.0666 21.5027C53.1253 22.0613 53.0794 22.7079 53.1087 23.3164C53.5263 22.9052 54.0901 22.5733 54.4826 22.1953C54.7018 21.9809 55.5535 21.456 55.5535 21.1161H55.5557Z" fill="black"/>
<path d="M52.9183 34.5592C54.3674 36.0282 54.1674 38.7153 54.0543 40.6298C53.9247 42.8172 52.9935 43.8541 51.6698 45.449C51.0029 46.2382 50.1754 46.8743 49.2431 47.3145C48.3108 47.7546 47.2954 47.9886 46.2655 48.0005C44.6122 48.0466 42.3274 48.1769 41.1284 46.7079C38.1679 43.0858 39.4666 38.6273 41.8666 35.0964C42.9519 33.5009 45.4036 32.5063 47.2746 32.4934C49.097 32.4768 51.5775 33.2033 52.9183 34.5592ZM53.2564 40.0422C53.2564 38.245 53.4111 35.7724 51.5823 34.7393C51.5151 34.7018 51.4442 34.6643 51.3775 34.6219C52.0546 35.8957 52.3217 37.3494 52.1418 38.7823C52.0036 40.3483 51.1226 43.0435 49.8362 44.0932C48.424 45.1806 46.6849 45.7508 44.9066 45.7096C43.562 45.7096 41.9162 45.5836 40.7386 44.8153C40.9438 45.2674 41.2369 45.6737 41.6005 46.0104C41.964 46.3471 42.3909 46.6073 42.8559 46.776C45.5956 47.8214 49.1706 47.1454 51.0836 44.8529C52.313 43.371 53.2564 42.0656 53.2564 40.0422ZM49.9034 42.6322C51.3103 39.6765 52.1375 36.7798 49.9658 33.9716C49.9452 33.946 49.9283 33.9177 49.9156 33.8874C49.809 33.8413 49.7066 33.7989 49.5983 33.7571C51.0351 36.6495 50.4335 39.9494 48.5316 42.496C47.6628 43.6627 45.7876 44.1752 44.4554 44.5065C43.6314 44.7119 42.7701 44.7134 41.9455 44.5108C44.5114 45.5455 48.8756 44.7773 49.9034 42.6322ZM49.5466 37.1117C49.5491 35.7914 49.1658 34.4995 48.4442 33.3963C47.7031 33.2188 46.929 33.2373 46.1972 33.4499C45.2198 33.7055 44.3059 34.1626 43.5136 34.7922C42.7212 35.4217 42.0677 36.2099 41.5946 37.1069C40.6078 38.9711 40.1571 41.0749 40.2932 43.1823C41.617 43.564 42.8074 44.068 44.2356 43.6986C45.426 43.3839 47.4223 42.7711 48.153 41.6162C49.0313 40.2772 49.5145 38.7153 49.5466 37.1117Z" fill="black"/>
<path d="M21.3749 24.2813C21.7482 24.8711 21.4746 26.4939 21.4079 27.17C21.3455 27.7453 21.1743 28.3205 20.577 28.4669C19.5999 28.7022 18.5221 28.8829 17.5199 29.0421C16.5386 29.2062 15.3818 29.0046 14.4586 29.3236C14.0661 29.4619 13.849 29.0132 14.0031 28.7188C14.001 28.7167 13.9996 28.7139 13.9994 28.7108C13.9866 27.5984 13.8655 26.3218 14.1535 25.2389C14.3498 24.4958 15.6906 24.6427 16.1877 24.5253C17.2616 24.2256 18.3652 24.0458 19.4783 23.9891C20.1925 23.9816 20.9359 23.5929 21.3749 24.2813ZM20.6106 25.2093C20.6106 24.7139 20.673 24.7558 20.2634 24.7895C19.8666 24.8233 19.4741 24.8271 19.0815 24.8609L18.8437 24.886C18.8577 24.9225 18.8675 24.9605 18.873 24.9992C18.8858 25.2764 18.9397 25.545 18.9397 25.8264C18.9167 25.9837 18.9167 26.1436 18.9397 26.3009C18.9949 26.4073 19.0369 26.52 19.065 26.6366C19.0671 26.6477 19.0671 26.6591 19.065 26.6703C19.4575 26.8043 19.8458 26.9684 20.3055 27.1153C20.3932 27.1422 20.4687 27.1991 20.5189 27.2761C20.6266 26.5929 20.6574 25.8995 20.6106 25.2093ZM18.4847 27.9549C18.6933 27.8964 19.2533 27.8793 19.7247 27.794C19.1212 27.4593 18.4487 27.2701 17.7599 27.2413C16.9541 27.2949 15.5839 27.4343 14.9077 27.8847C14.8821 27.9002 14.8556 27.9142 14.8282 27.9265C14.8282 28.0819 14.8325 28.2374 14.8325 28.3929C15.2917 28.3425 15.7514 28.3886 16.2271 28.3591C16.9912 28.3 17.7475 28.1646 18.4847 27.9549ZM18.0293 25.9524C18.0293 25.6307 18.0501 25.3225 18.0378 24.9992V24.9949C17.6282 25.0625 17.2234 25.1466 16.8143 25.2431C15.9994 25.4319 15.0181 25.2968 14.8847 26.3304C14.8597 26.5401 14.8218 26.754 14.8095 26.9641C15.6222 26.6454 16.4812 26.4625 17.3525 26.4226C17.4325 26.4183 17.5199 26.414 17.6074 26.414C17.7281 26.4051 17.8493 26.4151 17.9669 26.4435C17.9669 26.28 18.0293 26.116 18.0293 25.9524Z" fill="black"/>
</g>
<defs>
<clipPath id="clip0_1486_221">
<rect width="64" height="46" fill="white" transform="translate(0 9)"/>
</clipPath>
</defs>
</svg>
